<svg width="2000" height="2000" viewBox="0 0 2000 2000" fill="none" xmlns="http://www.w3.org/2000/svg">
<g clip-path="url(#clip0_2_4)">
<path fill-rule="evenodd" clip-rule="evenodd" d="M1085.46 496.741L1713.6 877.961L1592.05 1481.26L1052.64 1533.09L382.154 1481.26L361.505 749.578L1085.46 496.741Z" fill="#E7ECFF"/>
<path fill-rule="evenodd" clip-rule="evenodd" d="M1649.57 1080.27C1649.57 1054.03 1628.3 1032.76 1602.07 1032.76C1406.93 1032.76 668.095 1032.76 472.957 1032.76C446.722 1032.76 425.454 1054.03 425.454 1080.27C425.454 1141.26 425.454 1246.49 425.454 1307.49C425.454 1333.73 446.722 1354.99 472.957 1354.99C668.095 1354.99 1406.93 1354.99 1602.07 1354.99C1628.3 1354.99 1649.57 1333.73 1649.57 1307.49C1649.57 1246.49 1649.57 1141.26 1649.57 1080.27Z" fill="black"/>
<path fill-rule="evenodd" clip-rule="evenodd" d="M1635.75 1062.27C1635.75 1036.03 1614.48 1014.76 1588.25 1014.76C1393.11 1014.76 654.274 1014.76 459.136 1014.76C432.901 1014.76 411.633 1036.03 411.633 1062.27C411.633 1123.26 411.633 1228.49 411.633 1289.49C411.633 1315.73 432.901 1336.99 459.136 1336.99C654.274 1336.99 1393.11 1336.99 1588.25 1336.99C1614.48 1336.99 1635.75 1315.73 1635.75 1289.49C1635.75 1228.49 1635.75 1123.26 1635.75 1062.27Z" fill="white"/>
<path fill-rule="evenodd" clip-rule="evenodd" d="M1442.37 1112.27C1443.59 1109.66 1446.21 1108 1449.09 1108C1451.96 1108 1454.58 1109.66 1455.8 1112.27C1461.14 1123.68 1468.24 1138.84 1471.47 1145.75C1472.55 1148.06 1474.74 1149.65 1477.27 1149.97C1484.83 1150.91 1501.45 1152.97 1513.95 1154.52C1516.81 1154.88 1519.2 1156.85 1520.09 1159.58C1520.98 1162.32 1520.2 1165.32 1518.1 1167.28C1508.9 1175.89 1496.67 1187.33 1491.1 1192.54C1489.24 1194.27 1488.4 1196.85 1488.88 1199.35C1490.33 1206.84 1493.5 1223.28 1495.89 1235.65C1496.43 1238.47 1495.29 1241.36 1492.97 1243.05C1490.64 1244.74 1487.55 1244.93 1485.03 1243.54C1474 1237.45 1459.34 1229.35 1452.67 1225.67C1450.44 1224.43 1447.73 1224.43 1445.5 1225.67C1438.83 1229.35 1424.17 1237.45 1413.14 1243.54C1410.63 1244.93 1407.53 1244.74 1405.2 1243.05C1402.88 1241.36 1401.74 1238.47 1402.28 1235.65C1404.67 1223.28 1407.84 1206.84 1409.29 1199.35C1409.77 1196.85 1408.93 1194.27 1407.07 1192.54C1401.5 1187.33 1389.27 1175.89 1380.07 1167.28C1377.97 1165.32 1377.19 1162.32 1378.08 1159.58C1378.97 1156.85 1381.36 1154.88 1384.22 1154.52C1396.72 1152.97 1413.34 1150.91 1420.91 1149.97C1423.43 1149.65 1425.62 1148.06 1426.7 1145.75C1429.93 1138.84 1437.03 1123.68 1442.37 1112.27Z" fill="#C7CADD"/>
<path fill-rule="evenodd" clip-rule="evenodd" d="M1495.42 989.466C1496.64 986.865 1499.26 985.199 1502.14 985.199C1505.01 985.199 1507.63 986.865 1508.85 989.466C1514.19 1000.88 1521.29 1016.05 1524.52 1022.95C1525.6 1025.26 1527.79 1026.85 1530.32 1027.17C1537.88 1028.11 1554.5 1030.17 1567 1031.72C1569.86 1032.08 1572.25 1034.05 1573.14 1036.78C1574.03 1039.52 1573.25 1042.52 1571.15 1044.48C1561.95 1053.1 1549.72 1064.53 1544.15 1069.74C1542.29 1071.47 1541.45 1074.05 1541.93 1076.55C1543.38 1084.04 1546.55 1100.48 1548.94 1112.85C1549.48 1115.67 1548.35 1118.56 1546.02 1120.25C1543.69 1121.94 1540.6 1122.13 1538.08 1120.74C1527.05 1114.65 1512.39 1106.55 1505.72 1102.87C1503.49 1101.63 1500.78 1101.63 1498.55 1102.87C1491.88 1106.55 1477.22 1114.65 1466.19 1120.74C1463.68 1122.13 1460.58 1121.94 1458.26 1120.25C1455.93 1118.56 1454.79 1115.67 1455.33 1112.85C1457.72 1100.48 1460.89 1084.04 1462.34 1076.55C1462.82 1074.05 1461.98 1071.47 1460.12 1069.74C1454.55 1064.53 1442.33 1053.1 1433.12 1044.48C1431.02 1042.52 1430.25 1039.52 1431.13 1036.78C1432.02 1034.05 1434.41 1032.08 1437.27 1031.72C1449.77 1030.17 1466.39 1028.11 1473.96 1027.17C1476.48 1026.85 1478.67 1025.26 1479.75 1022.95C1482.99 1016.05 1490.08 1000.88 1495.42 989.466Z" fill="#FFCF3D"/>
<path fill-rule="evenodd" clip-rule="evenodd" d="M591.589 1112.27C592.808 1109.66 595.424 1108 598.3 1108C601.176 1108 603.793 1109.66 605.012 1112.27C610.353 1123.68 617.45 1138.84 620.682 1145.75C621.762 1148.06 623.952 1149.65 626.481 1149.97C634.047 1150.91 650.662 1152.97 663.168 1154.52C666.022 1154.88 668.414 1156.85 669.302 1159.58C670.191 1162.32 669.416 1165.32 667.316 1167.28C658.111 1175.89 645.882 1187.33 640.313 1192.54C638.452 1194.27 637.616 1196.85 638.098 1199.35C639.543 1206.84 642.715 1223.28 645.102 1235.65C645.647 1238.47 644.509 1241.36 642.182 1243.05C639.855 1244.74 636.76 1244.93 634.242 1243.54C623.212 1237.45 608.558 1229.35 601.884 1225.67C599.654 1224.43 596.947 1224.43 594.717 1225.67C588.043 1229.35 573.388 1237.45 562.358 1243.54C559.841 1244.93 556.746 1244.74 554.419 1243.05C552.092 1241.36 550.954 1238.47 551.498 1235.65C553.886 1223.28 557.058 1206.84 558.502 1199.35C558.985 1196.85 558.148 1194.27 556.287 1192.54C550.718 1187.33 538.49 1175.89 529.285 1167.28C527.184 1165.32 526.409 1162.32 527.299 1159.58C528.187 1156.85 530.579 1154.88 533.433 1154.52C545.938 1152.97 562.554 1150.91 570.12 1149.97C572.649 1149.65 574.838 1148.06 575.918 1145.75C579.15 1138.84 586.247 1123.68 591.589 1112.27Z" fill="#FFCF3D"/>
<path fill-rule="evenodd" clip-rule="evenodd" d="M804.284 1112.27C805.504 1109.66 808.12 1108 810.996 1108C813.872 1108 816.488 1109.66 817.707 1112.27C823.049 1123.68 830.146 1138.84 833.378 1145.75C834.458 1148.06 836.648 1149.65 839.177 1149.97C846.742 1150.91 863.358 1152.97 875.863 1154.52C878.718 1154.88 881.109 1156.85 881.998 1159.58C882.887 1162.32 882.112 1165.32 880.011 1167.28C870.807 1175.89 858.578 1187.33 853.009 1192.54C851.148 1194.27 850.312 1196.85 850.794 1199.35C852.239 1206.84 855.411 1223.28 857.798 1235.65C858.343 1238.47 857.205 1241.36 854.878 1243.05C852.551 1244.74 849.456 1244.93 846.938 1243.54C835.908 1237.45 821.254 1229.35 814.58 1225.67C812.35 1224.43 809.643 1224.43 807.412 1225.67C800.739 1229.35 786.084 1237.45 775.054 1243.54C772.537 1244.93 769.442 1244.74 767.115 1243.05C764.788 1241.36 763.649 1238.47 764.194 1235.65C766.581 1223.28 769.754 1206.84 771.198 1199.35C771.681 1196.85 770.844 1194.27 768.983 1192.54C763.414 1187.33 751.185 1175.89 741.981 1167.28C739.88 1165.32 739.105 1162.32 739.994 1159.58C740.883 1156.85 743.274 1154.88 746.129 1154.52C758.634 1152.97 775.25 1150.91 782.816 1149.97C785.345 1149.65 787.534 1148.06 788.614 1145.75C791.846 1138.84 798.943 1123.68 804.284 1112.27Z" fill="#FFCF3D"/>
<path fill-rule="evenodd" clip-rule="evenodd" d="M1016.98 1112.27C1018.2 1109.66 1020.82 1108 1023.69 1108C1026.57 1108 1029.18 1109.66 1030.4 1112.27C1035.75 1123.68 1042.84 1138.84 1046.07 1145.75C1047.15 1148.06 1049.34 1149.65 1051.87 1149.97C1059.44 1150.91 1076.05 1152.97 1088.56 1154.52C1091.41 1154.88 1093.81 1156.85 1094.69 1159.58C1095.58 1162.32 1094.81 1165.32 1092.71 1167.28C1083.5 1175.89 1071.27 1187.33 1065.71 1192.54C1063.84 1194.27 1063.01 1196.85 1063.49 1199.35C1064.93 1206.84 1068.11 1223.28 1070.49 1235.65C1071.04 1238.47 1069.9 1241.36 1067.57 1243.05C1065.25 1244.74 1062.15 1244.93 1059.63 1243.54C1048.6 1237.45 1033.95 1229.35 1027.28 1225.67C1025.05 1224.43 1022.34 1224.43 1020.11 1225.67C1013.44 1229.35 998.78 1237.45 987.75 1243.54C985.233 1244.93 982.138 1244.74 979.811 1243.05C977.484 1241.36 976.345 1238.47 976.89 1235.65C979.277 1223.28 982.45 1206.84 983.894 1199.35C984.377 1196.85 983.54 1194.27 981.679 1192.54C976.11 1187.33 963.881 1175.89 954.677 1167.28C952.576 1165.32 951.801 1162.32 952.691 1159.58C953.579 1156.85 955.97 1154.88 958.825 1154.52C971.33 1152.97 987.946 1150.91 995.512 1149.97C998.041 1149.65 1000.23 1148.06 1001.31 1145.75C1004.54 1138.84 1011.64 1123.68 1016.98 1112.27Z" fill="#FFCF3D"/>
<path fill-rule="evenodd" clip-rule="evenodd" d="M1229.67 1112.27C1230.89 1109.66 1233.51 1108 1236.39 1108C1239.26 1108 1241.88 1109.66 1243.1 1112.27C1248.44 1123.68 1255.54 1138.84 1258.77 1145.75C1259.85 1148.06 1262.04 1149.65 1264.57 1149.97C1272.13 1150.91 1288.75 1152.97 1301.25 1154.52C1304.11 1154.88 1306.5 1156.85 1307.39 1159.58C1308.28 1162.32 1307.5 1165.32 1305.4 1167.28C1296.2 1175.89 1283.97 1187.33 1278.4 1192.54C1276.54 1194.27 1275.7 1196.85 1276.18 1199.35C1277.63 1206.84 1280.8 1223.28 1283.19 1235.65C1283.73 1238.47 1282.59 1241.36 1280.27 1243.05C1277.94 1244.74 1274.85 1244.93 1272.33 1243.54C1261.3 1237.45 1246.64 1229.35 1239.97 1225.67C1237.74 1224.43 1235.03 1224.43 1232.8 1225.67C1226.13 1229.35 1211.47 1237.45 1200.44 1243.54C1197.93 1244.93 1194.83 1244.74 1192.5 1243.05C1190.18 1241.36 1189.04 1238.47 1189.58 1235.65C1191.97 1223.28 1195.14 1206.84 1196.59 1199.35C1197.07 1196.85 1196.23 1194.27 1194.37 1192.54C1188.8 1187.33 1176.58 1175.89 1167.37 1167.28C1165.27 1165.32 1164.5 1162.32 1165.38 1159.58C1166.27 1156.85 1168.66 1154.88 1171.52 1154.52C1184.02 1152.97 1200.64 1150.91 1208.21 1149.97C1210.73 1149.65 1212.92 1148.06 1214 1145.75C1217.24 1138.84 1224.33 1123.68 1229.67 1112.27Z" fill="#FFCF3D"/>
<path fill-rule="evenodd" clip-rule="evenodd" d="M1482.62 1070.66C1482.62 1070.66 1483.63 1059.43 1473.53 1055.69C1463.43 1051.94 1439.09 1047.22 1433.05 1029.32L1423.49 1039.97C1423.49 1039.97 1427.9 1061.26 1455.63 1066.63C1483.38 1072 1482.62 1070.66 1482.62 1070.66Z" fill="#E89B68"/>
<path fill-rule="evenodd" clip-rule="evenodd" d="M1388.53 1064.23C1388.53 1064.23 1416.95 1078.91 1433.18 1077.55C1449.4 1076.19 1463.82 1073.28 1476.13 1073.85C1488.5 1074.42 1482.37 1060.52 1466.03 1057.35C1449.63 1054.19 1441.35 1051.16 1433.18 1043.1C1433.18 1043.1 1430 1033.19 1441.58 1032.37L1473.97 1028.79C1473.97 1028.79 1473.52 1021.09 1450.14 1011.11C1426.83 1001.13 1406.74 996.503 1406.74 996.503L1394.2 1007.69L1383.48 1053.76L1388.53 1064.23Z" fill="#FFC8A3"/>
<path fill-rule="evenodd" clip-rule="evenodd" d="M783.072 792.898C783.072 792.898 761.003 794.691 729.176 810.021C697.292 825.35 667.904 865.897 620.531 1014.53H1069.97C1069.97 1014.53 1132.15 1043.97 1209.31 1056.8C1286.47 1069.64 1344.62 1077.09 1359.37 1062.03C1359.37 1062.03 1377.86 1067.73 1383.88 1067.1C1389.84 1066.46 1393.64 1054.56 1396.25 1046.71C1398.91 1038.85 1408.61 998.789 1405.89 994.081C1403.17 989.377 1376.45 982.002 1376.45 982.002C1376.45 982.002 1374.23 973.469 1364.76 967.824C1350.86 959.524 1183.27 919.652 1185.14 923.379C1185.14 923.379 1102.82 840.719 1059.14 810.021L783.072 792.898Z" fill="#3D61FF"/>
<path fill-rule="evenodd" clip-rule="evenodd" d="M913.332 860.593L908.339 1014.57H977.496L985.042 860.593H913.332Z" fill="#FF7A3D"/>
<path fill-rule="evenodd" clip-rule="evenodd" d="M868.23 850.698C868.23 850.698 864.314 929.047 863.066 954.339C862.839 958.65 866.13 962.344 870.441 962.639C872.484 962.781 874.47 962.094 876.002 960.744C877.533 959.388 878.441 957.482 878.555 955.445C879.86 930.346 883.944 852.718 883.944 852.718L868.23 850.698Z" fill="white"/>
<path fill-rule="evenodd" clip-rule="evenodd" d="M1003.2 847.615C1003.2 847.615 999.283 925.964 998.035 951.256C997.808 955.568 1001.1 959.261 1005.41 959.556C1007.45 959.698 1009.44 959.011 1010.97 957.661C1012.5 956.305 1013.41 954.399 1013.52 952.362C1014.83 927.263 1018.91 849.635 1018.91 849.635L1003.2 847.615Z" fill="white"/>
<path fill-rule="evenodd" clip-rule="evenodd" d="M885.249 670.71C885.249 670.71 856.143 670.025 838.045 677.99C820.004 685.954 808.942 700.941 802.474 733.357C802.474 733.357 779.725 735.734 773.994 751.937C768.264 768.134 763.499 797.216 763.499 797.216C763.499 797.216 778.533 791.361 781.653 794.339C889.22 897.77 1006.88 895.047 1059.59 819.217C1069.23 805.272 1069.92 786.975 1061.35 772.344C1061.35 772.333 1061.35 772.333 1061.35 772.333C1051.48 755.534 1027.93 696.721 885.249 670.71Z" fill="#FF7A3D"/>
<path fill-rule="evenodd" clip-rule="evenodd" d="M769.973 878.205C769.973 878.205 774.562 888.655 773.689 923.302C773.093 946.965 762.864 1014.34 762.864 1014.34H790.346C790.346 1014.34 798.68 906.724 769.973 878.205Z" fill="#001C8C"/>
<path fill-rule="evenodd" clip-rule="evenodd" d="M1051.59 1014.34L1064.28 917.759L1068.24 1014.34H1051.59Z" fill="#001C8C"/>
<path fill-rule="evenodd" clip-rule="evenodd" d="M879.584 774.119C879.584 774.119 850.967 753.935 849.331 728.55C847.689 703.165 895.404 689.336 927.511 743.891L879.584 774.119Z" fill="#CC3D00"/>
<path fill-rule="evenodd" clip-rule="evenodd" d="M912.992 870.092C937.177 875.703 961.045 876.003 984.55 870.364L983.841 884.876C962.412 898.907 943.554 906.151 911.886 904.302L912.992 870.092Z" fill="#CC3D00"/>
<path fill-rule="evenodd" clip-rule="evenodd" d="M655.319 723.25C647.265 723.25 640.726 729.791 640.726 737.842C640.726 745.898 647.265 752.439 655.319 752.439C663.373 752.439 669.912 745.898 669.912 737.842C669.912 729.791 663.373 723.25 655.319 723.25ZM655.319 727.976C660.764 727.976 665.184 732.401 665.184 737.842C665.184 743.288 660.764 747.708 655.319 747.708C649.874 747.708 645.454 743.288 645.454 737.842C645.454 732.401 649.874 727.976 655.319 727.976Z" fill="#AB3DFF"/>
<path fill-rule="evenodd" clip-rule="evenodd" d="M1438.62 904.381C1430.47 904.381 1423.85 911.001 1423.85 919.149C1423.85 927.297 1430.47 933.918 1438.62 933.918C1446.77 933.918 1453.39 927.297 1453.39 919.149C1453.39 911.001 1446.77 904.381 1438.62 904.381ZM1438.62 909.11C1444.17 909.11 1448.66 913.605 1448.66 919.149C1448.66 924.694 1444.17 929.189 1438.62 929.189C1433.09 929.189 1428.58 924.694 1428.58 919.149C1428.58 913.605 1433.09 909.11 1438.62 909.11Z" fill="#AB3DFF"/>
<path fill-rule="evenodd" clip-rule="evenodd" d="M400.079 1355.03L342.171 1412.94C341.248 1413.86 341.247 1415.36 342.169 1416.28C343.092 1417.2 344.591 1417.2 345.514 1416.28L403.422 1358.37C404.345 1357.45 404.346 1355.95 403.423 1355.03C402.501 1354.1 401.002 1354.11 400.079 1355.03Z" fill="#3D61FF"/>
<path fill-rule="evenodd" clip-rule="evenodd" d="M378.961 1333.99L317.552 1350.45C316.297 1350.78 315.546 1352.08 315.884 1353.34C316.222 1354.6 317.521 1355.35 318.775 1355.01L380.185 1338.56C381.445 1338.22 382.196 1336.92 381.858 1335.66C381.52 1334.4 380.221 1333.65 378.961 1333.99Z" fill="#3D61FF"/>
<path fill-rule="evenodd" clip-rule="evenodd" d="M419.892 1378.26L403.437 1439.67C403.101 1440.93 403.849 1442.23 405.11 1442.56C406.37 1442.9 407.667 1442.15 408.003 1440.9L424.458 1379.49C424.796 1378.23 424.047 1376.93 422.787 1376.59C421.527 1376.25 420.229 1377 419.892 1378.26Z" fill="#3D61FF"/>
<path fill-rule="evenodd" clip-rule="evenodd" d="M1638.24 1009.67L1696.15 951.761C1697.07 950.838 1697.07 949.339 1696.15 948.416C1695.23 947.494 1693.73 947.495 1692.8 948.418L1634.9 1006.33C1633.97 1007.25 1633.97 1008.75 1634.89 1009.67C1635.82 1010.59 1637.32 1010.59 1638.24 1009.67Z" fill="#FF7A3D"/>
<path fill-rule="evenodd" clip-rule="evenodd" d="M1659.35 1030.71L1720.76 1014.25C1722.02 1013.91 1722.77 1012.62 1722.43 1011.36C1722.09 1010.1 1720.79 1009.35 1719.54 1009.68L1658.13 1026.14C1656.87 1026.48 1656.12 1027.77 1656.46 1029.03C1656.79 1030.29 1658.09 1031.04 1659.35 1030.71Z" fill="#FF7A3D"/>
<path fill-rule="evenodd" clip-rule="evenodd" d="M1618.42 986.432L1634.88 925.023C1635.21 923.768 1634.47 922.469 1633.2 922.131C1631.94 921.794 1630.65 922.544 1630.31 923.799L1613.86 985.208C1613.52 986.469 1614.27 987.768 1615.53 988.105C1616.79 988.443 1618.09 987.692 1618.42 986.432Z" fill="#FF7A3D"/>
<path fill-rule="evenodd" clip-rule="evenodd" d="M470.814 923.379C471.17 923.89 471.55 924.406 471.955 924.928C478.827 933.756 493.279 943.945 520.169 953.675C521.396 954.118 522.752 953.482 523.196 952.257C523.64 951.026 523.004 949.67 521.777 949.227C498.737 940.893 485.174 932.366 477.907 924.616C481.811 924.622 485.834 923.487 489.904 920.86C493.527 918.517 495.326 914.262 495.219 909.826C495.061 903.364 490.875 896.675 483.169 895.62C476.266 894.678 468.229 899.591 466.66 907.891C466.178 910.439 466.299 913.332 467.308 916.475C465.305 915.244 463.378 913.735 461.544 912.067C449.462 901.083 441.206 882.929 441.206 882.929C440.664 881.743 439.261 881.221 438.074 881.76C436.887 882.299 436.362 883.706 436.903 884.892C436.903 884.892 445.635 903.994 458.363 915.567C462.204 919.056 466.394 921.865 470.814 923.379ZM473.805 919.312C478.127 920.401 482.684 919.896 487.338 916.889C489.595 915.431 490.559 912.702 490.492 909.939C490.387 905.605 487.7 901.01 482.529 900.306C477.811 899.659 472.378 903.097 471.305 908.771C470.736 911.778 471.399 915.352 473.805 919.312Z" fill="#FF3D3D"/>
<path fill-rule="evenodd" clip-rule="evenodd" d="M1165.4 1431.09C1166.63 1429.11 1167.51 1427.13 1168.06 1425.26C1170.1 1418.35 1167.99 1412.49 1162.96 1410.32C1155.83 1407.25 1148.66 1411.39 1145.18 1416.96C1142.7 1420.93 1142.21 1425.51 1144.31 1428.72C1146.93 1432.73 1150.54 1435.03 1154.83 1435.96C1145.12 1443.77 1127.7 1448.94 1101.42 1443.23C1100.15 1442.95 1098.89 1443.76 1098.61 1445.04C1098.33 1446.31 1099.14 1447.57 1100.42 1447.85C1131.87 1454.68 1151.49 1446.55 1161.26 1436.39C1164.52 1436.21 1168.01 1435.47 1171.65 1434.29C1196.28 1426.29 1227.61 1398.1 1227.61 1398.1C1228.58 1397.23 1228.66 1395.73 1227.79 1394.76C1226.91 1393.79 1225.42 1393.71 1224.45 1394.59C1224.45 1394.59 1194.09 1422.03 1170.19 1429.79C1168.56 1430.32 1166.96 1430.76 1165.4 1431.09ZM1159.13 1431.76C1159.89 1430.86 1160.57 1429.94 1161.16 1429.01C1163.29 1425.66 1164.28 1422.32 1164.08 1419.54C1163.93 1417.3 1162.97 1415.48 1161.09 1414.67C1156.27 1412.59 1151.54 1415.7 1149.19 1419.47C1147.77 1421.73 1147.07 1424.3 1148.26 1426.13C1150.83 1430.05 1154.62 1431.66 1159.13 1431.76Z" fill="#3D61FF"/>
<path fill-rule="evenodd" clip-rule="evenodd" d="M899.375 744.199C899.375 744.199 886.61 764.469 879.631 774.114C879.631 774.114 892.965 785.376 919.97 792.411L916.111 744.199H899.375Z" fill="#FFC8A3"/>
<path fill-rule="evenodd" clip-rule="evenodd" d="M922.977 696.86C922.977 696.86 910.494 683.697 892.226 690.922C874.014 698.147 875.321 718.436 879.008 727.695C882.753 736.959 896.822 746.303 908.339 749.287C908.339 749.287 906.694 780.15 922.977 801.981C939.259 823.812 978.405 840.322 1020.56 824.374C1037.58 817.958 1046.77 807.411 1053.8 794.578C1060.78 781.733 1080.64 747.387 1080.64 747.387L1071.73 649.919L972.787 626.925L931.655 696.86H922.977Z" fill="#FFC8A3"/>
<path fill-rule="evenodd" clip-rule="evenodd" d="M922.92 696.56C922.92 696.56 922.126 713.256 925.189 717.364C928.253 721.477 944.421 692.34 950.094 680.186C950.094 680.186 966.151 672.75 975.398 662.618C984.646 652.487 994.063 650.404 1000.02 665.431C1000.02 665.431 1019.54 650.203 1032.24 652.069C1045.01 653.936 1046.71 664.612 1048.02 683.927C1049.38 703.243 1050.8 731.893 1080.35 747.33L1062.65 778.085C1062.65 778.085 1095.45 773.728 1109.06 731.218L1115.81 741.379C1115.81 741.379 1138.51 654.473 1096.07 604.041C1053.58 553.609 985.724 562.103 964.506 577.236C964.506 577.236 915.602 570.36 894.44 615.905C873.279 661.45 880.199 700.753 880.199 700.753C880.199 700.753 895.972 676.566 922.92 696.56Z" fill="#000045"/>
<path fill-rule="evenodd" clip-rule="evenodd" d="M891.887 704.439C891.887 704.439 902.835 712.241 911.969 727.275C912.65 728.393 914.068 728.75 915.203 728.069C916.337 727.394 916.679 725.942 915.998 724.824C906.297 708.842 894.61 700.581 894.61 700.581C893.532 699.827 892.057 700.079 891.319 701.144C890.582 702.209 890.809 703.685 891.887 704.439Z" fill="#000045"/>
<path fill-rule="evenodd" clip-rule="evenodd" d="M894.383 723.309C894.383 723.309 902.1 719.86 907.659 718.873C908.964 718.646 909.814 717.415 909.588 716.133C909.361 714.85 908.112 713.988 906.864 714.221C900.85 715.287 892.454 718.992 892.454 718.992C891.263 719.525 890.752 720.921 891.262 722.118C891.83 723.304 893.191 723.843 894.383 723.309Z" fill="#000045"/>
<path fill-rule="evenodd" clip-rule="evenodd" d="M1011.93 758.07L1009.15 778.233C1008.93 779.526 1009.83 780.718 1011.14 780.894C1012.44 781.075 1013.63 780.168 1013.81 778.88L1016.59 758.717C1016.76 757.423 1015.85 756.226 1014.6 756.05C1013.3 755.869 1012.1 756.776 1011.93 758.07Z" fill="#000045"/>
<path fill-rule="evenodd" clip-rule="evenodd" d="M977.61 704.607C977.61 704.607 997.526 697.932 1008.08 716.853C1008.7 717.988 1010.12 718.402 1011.25 717.766C1012.39 717.131 1012.84 715.69 1012.16 714.55C999.738 692.145 976.137 700.127 976.137 700.127C974.889 700.543 974.208 701.886 974.605 703.122C975.059 704.358 976.362 705.024 977.61 704.607Z" fill="#000045"/>
<path fill-rule="evenodd" clip-rule="evenodd" d="M1039.39 725.454C1039.39 725.454 1047.45 722.867 1055.79 725.459C1057.04 725.845 1058.4 725.147 1058.8 723.905C1059.14 722.657 1058.45 721.329 1057.21 720.943C1047.45 717.903 1037.92 720.949 1037.92 720.949C1036.67 721.346 1035.99 722.679 1036.39 723.922C1036.78 725.164 1038.14 725.851 1039.39 725.454Z" fill="#000045"/>
<path d="M991.851 741.057C995.642 741.057 998.714 737.984 998.714 734.193C998.714 730.402 995.642 727.328 991.851 727.328C988.06 727.328 984.987 730.402 984.987 734.193C984.987 737.984 988.06 741.057 991.851 741.057Z" fill="#000045"/>
<path d="M1049.04 759.339C1052.83 759.339 1055.9 756.265 1055.9 752.475C1055.9 748.684 1052.83 745.61 1049.04 745.61C1045.25 745.61 1042.17 748.684 1042.17 752.475C1042.17 756.265 1045.25 759.339 1049.04 759.339Z" fill="#000045"/>
<path fill-rule="evenodd" clip-rule="evenodd" d="M916.718 791.442C916.718 791.442 907.692 773.032 908.305 749.289L899.539 785.457C905.632 788.044 911.362 790.052 916.718 791.442Z" fill="#E89B68"/>
<path fill-rule="evenodd" clip-rule="evenodd" d="M1000.63 795.587C1000.63 795.587 979.664 796.88 974.368 775.873C974.059 774.615 972.797 773.848 971.537 774.168C970.276 774.488 969.464 775.763 969.826 777.04C976.029 801.897 1000.89 800.296 1000.89 800.296C1002.21 800.217 1003.21 799.096 1003.15 797.799C1003.03 796.488 1001.94 795.507 1000.63 795.587Z" fill="#000045"/>
</g>
<defs>
<clipPath id="clip0_2_4">
<rect width="1702" height="1702" fill="white" transform="translate(140 140)"/>
</clipPath>
</defs>
</svg>
