<svg fill="none" height="130" viewBox="0 0 350 130" width="350" xmlns="http://www.w3.org/2000/svg" xmlns:xlink="http://www.w3.org/1999/xlink"><clipPath id="a"><path d="m0 0h350v130h-350z"/></clipPath><g clip-path="url(#a)"><path d="m296.77 86.76c-10.45-1.09-21 .85-31.22 3.07s-20.55 4.75-31.08 4.86-21.47-2.44-29.39-9.29-12.18-18.59-8.28-28.34c2.93-7.33 9.66-12.37 14.18-18.85 3.626-5.3397 5.757-11.5524 6.172-17.9934s-.901-12.87577-3.812-18.63661c-.28-.54-.59-1.06-.9-1.5899998h137.56v130.0100098h-5.49c-1.269-6.27-3.639-12.266-7-17.71-4.443-7.037-10.411-12.9845-17.463-17.4036s-15.007-7.1964-23.277-8.1264z" fill="#74599b"/><path d="m0 0h70.14l9.66 4.39c8.59 3.9 17.5 8 23.45 15.37 8.1 10 9.14 23.93 7.87 36.72s-4.47 25.52-3.46 38.33 6.27 24.83 14 35.19h-121.66z" fill="#ede9f0"/><path d="m111.11 56.48c1.26-12.79.23-26.75-7.87-36.72-5.9501-7.32-14.8601-11.47-23.4401-15.37l-9.66-4.39h142.2901c.31.52.62 1 .9 1.59 2.915 5.75821 4.236 12.1915 3.826 18.6325-.409 6.441-2.535 12.655-6.156 17.9975-4.52 6.47-11.25 11.52-14.18 18.85-3.9 9.75.32 21.49 8.28 28.34s18.89 9.41 29.39 9.29 20.81-2.64 31.07-4.86 20.78-4.16 31.22-3.07c8.273.9272 16.232 3.7031 23.288 8.1223 7.055 4.4192 13.027 10.3687 17.472 17.4077 3.361 5.444 5.731 11.44 7 17.71h-222.86c-7.75-10.36-13-22.33-14-35.19s2.17-25.55 3.43-38.34z" fill="#baa8c6"/><path d="m263.35 1.14996h-46.57v24.28004h46.57z" fill="#d0dcdb"/><path d="m258.05 25.43h-35.45v60.13h35.45z" fill="#fff"/><path d="m258.05 101.63h-35.45v28.37h35.45z" fill="#fff"/><path d="m217.71 82.64v19.86c0 1.122.446 2.198 1.239 2.991s1.869 1.239 2.991 1.239h36.77c1.122 0 2.198-.446 2.991-1.239s1.239-1.869 1.239-2.991v-19.86z" fill="#aed0d5"/><path d="m252.1 82.64v13c-.001.5559.107 1.1065.319 1.6203.213.5138.524.9807.917 1.3737.393.3931.86.7046 1.374.9167s1.064.3206 1.62.3193h6.6v-17.23z" fill="#8aafb4"/><path d="m232 82.64v13c-.001.5559.107 1.1065.319 1.6203s.524.9807.917 1.3737c.393.3931.86.7046 1.374.9167s1.064.3206 1.62.3193h8.19c.556.0013 1.107-.1072 1.62-.3193.514-.2121.981-.5236 1.374-.9167.393-.393.705-.8599.917-1.3737s.32-1.0644.319-1.6203v-13z" fill="#9dc1c6"/><path d="m217.71 82.64v17.19h6.6c.556.0013 1.106-.1072 1.62-.3193s.981-.5237 1.374-.9167c.393-.3931.705-.8599.917-1.3737s.32-1.0645.319-1.6203v-13z" fill="#fff" opacity=".48"/><path d="m258.05 25.43h-35.45v6.52h35.45z" fill="#a6bec3"/><path d="m258.05 106.73h-35.45v6.52h35.45z" fill="#a6bec3"/><path d="m307 90.32c-1.74 1-3.37 3.33-5.63 5.41-2.636 2.13-5.528 3.9206-8.61 5.33h-.08l-1.25.54h-.07l-4 1.74c-1.479.647-3.07.997-4.684 1.028-1.614.032-3.218-.255-4.72-.844-1.503-.589-2.875-1.468-4.038-2.588-1.162-1.119-2.093-2.4566-2.738-3.936l-4.74-11c-.639-1.4813-.979-3.0738-1.002-4.6867s.272-3.2145.868-4.7133c.597-1.4988 1.482-2.8655 2.607-4.022 1.124-1.1564 2.465-2.08 3.947-2.718l12.83-5.53c2.992-1.2869 6.372-1.3335 9.398-.1298 3.027 1.2038 5.451 3.5595 6.742 6.5498l4.74 11c1.175 2.7106 1.328 5.7554.43 8.57z" fill="#efcd9c"/><path d="m298.85 67.18-15.9 5.89c-.702-.5856-1.354-1.2278-1.95-1.92-.63-.63-1.28-1.07-1.95-1.66-.17-.1391-.327-.293-.47-.46-.45-.6753-1.076-1.2147-1.81-1.56-1.029-.2997-2.032-.6809-3-1.14l.49.22c-1.182-.5364-2.28-1.2403-3.26-2.09-1.217-1.0218-2.353-2.135-3.4-3.33-1.93-2.21-3.29-4.64-3.36-5.69 0 0 0 0 0-.06-.062-.3347-.048-.6789.04-1.0075.089-.3287.249-.6336.47-.8925.399-.5357.966-.9228 1.61-1.1 1.49-.38 3.21.55 4.91 1.7 1.586 1.1955 3.342 2.1461 5.21 2.82 2.46.4754 4.849 1.2617 7.11 2.34 2.32 1.26 9.27 4.21 11.57 5.29.56.31 3.17 2.33 3.69 2.65z" fill="#efcd9c"/><path d="m326.02 63.72h-33.62v28.97h33.62z" fill="#efcd9c"/><path d="m326 87.32v5.37h-21.74c1.202-1.5888 2.042-3.4218 2.46-5.37z" fill="#d5ae7c"/><path d="m350 59.98h-36.83v36.85h36.83z" fill="#3dafc8"/><path d="m350 78.4h-36.83v18.43h36.83z" fill="#23849e"/><path d="m283.71 73.7c-.367.9567-.543 1.9757-.52 3-1.055-.5239-2.268-.6345-3.4-.31.573-.7605.906-1.6756.953-2.6269.048-.9514-.19-1.8951-.685-2.7093-.494-.8142-1.221-1.4614-2.088-1.8579-.866-.3964-1.831-.5239-2.77-.3659l2.26-1h.09c2.53 0 5.07 2.53 5.95 5.06.088.265.158.5356.21.81z" fill="#d5ae7c"/><path d="m299.06 97.48-.4.26c-.2.15-.28.2-.5.34-.209.1485-.426.2854-.65.41l-4.58-5.79-.53-.7-2.22-2.75c.057-1.1699-.32-2.3197-1.058-3.2292-.738-.9096-1.785-1.5151-2.942-1.7008l-.89-1.11c.349-.6571.541-1.3862.56-2.13 2.005 1.2306 4.218 2.0846 6.53 2.52.697.0899 1.403.0899 2.1 0-.94 2.55-.07 6.25.89 8.46.078.2051.168.4055.27.6.96 1.727 2.107 3.3433 3.42 4.82z" fill="#d5ae7c"/><path d="m232.22 56.09c2.305 2.0843 5.129 3.5093 8.175 4.1251 3.046.6159 6.201.4 9.135-.6251l45.23 57.91c1.144 1.441 2.809 2.374 4.636 2.597 1.826.223 3.667-.283 5.124-1.407 1.448-1.138 2.39-2.802 2.62-4.63.23-1.539-.096-3.11-.92-4.43l-46-58.91c2.29-7.3.78-15.21-4.83-20.28-2.249-2.027-4.992-3.4274-7.952-4.0609-2.961-.6336-6.036-.4781-8.918.4509l10.24 9.25c.338.2986.614.6619.81 1.0684s.31.8482.333 1.299-.044.9018-.197 1.3264c-.154.4246-.39.8143-.696 1.1462l-7 7.78c-.613.6672-1.464 1.0672-2.369 1.1139-.905.0468-1.792-.2634-2.471-.8639l-10.25-9.25c-.636 2.9567-.48 6.0287.45 8.9063.931 2.8775 2.604 5.4588 4.85 7.4837z" fill="#9cbdbf"/><path d="m297.65 114.69c.489.605 1.194.997 1.967 1.092.772.095 1.552-.113 2.173-.582.605-.489.997-1.194 1.092-1.967.095-.772-.113-1.552-.582-2.173l-37.95-48.58c-.489-.6054-1.194-.9971-1.967-1.0922-.772-.0952-1.552.1136-2.173.5822-.605.4891-.997 1.1944-1.092 1.9669s.113 1.5517.582 2.1731z" fill="#6e9596"/><path d="m292.55 93.31c.606 1.11.746 2.4151.389 3.6283-.356 1.2132-1.179 2.2353-2.289 2.8417l-14.35 7.82c-1.11.606-2.415.746-3.628.389-1.213-.356-2.236-1.179-2.842-2.289-.605-1.11-.745-2.415-.389-3.628.356-1.214 1.18-2.2356 2.289-2.842l14.36-7.83c.55-.2994 1.154-.4876 1.777-.5536.623-.0661 1.253-.0088 1.854.1685.6.1774 1.16.4714 1.648.8652.487.3937.892.8796 1.191 1.4299z" fill="#f4d6a4"/><path d="m289.8 87.15c.248.5745.38 1.1922.389 1.8179.01.6257-.105 1.247-.336 1.8284s-.575 1.1115-1.011 1.56c-.437.4485-.957.8066-1.532 1.0537l-18.23 7.86c-.576.248-1.195.38-1.822.389-.627.008-1.249-.107-1.831-.339-.583-.232-1.113-.577-1.562-1.015-.449-.4372-.808-.9589-1.055-1.535-.248-.5744-.38-1.1922-.39-1.8178-.009-.6257.106-1.247.337-1.8285.231-.5814.575-1.1115 1.011-1.56.437-.4485.957-.8065 1.532-1.0537l18.23-7.86c.575-.2482 1.194-.3807 1.82-.39.626-.0092 1.248.1051 1.831.3363.582.2312 1.113.5749 1.562 1.0113.45.4365.809.9572 1.057 1.5324z" fill="#f4d6a4"/><path d="m285.48 79.1c.248.5738.381 1.191.391 1.8162s-.104 1.2462-.334 1.8276c-.23.5813-.573 1.1116-1.008 1.5605-.436.4489-.955.8076-1.529 1.0557l-19.84 8.55c-.576.2479-1.195.3799-1.822.3885-.626.0085-1.249-.1066-1.831-.3388-.583-.2322-1.113-.5769-1.562-1.0144s-.808-.9592-1.055-1.5353c-.498-1.1605-.516-2.4713-.049-3.6448s1.38-2.114 2.539-2.6152l19.84-8.55c.575-.2483 1.194-.3808 1.82-.39s1.249.105 1.831.3363c.582.2312 1.113.5748 1.562 1.0113.45.4364.809.9571 1.057 1.5324z" fill="#f4d6a4"/><path d="m280.36 71.64c.498 1.1605.516 2.4712.049 3.6448-.467 1.1735-1.38 2.114-2.539 2.6152l-18.23 7.86c-.575.2483-1.194.3808-1.82.39s-1.249-.1051-1.831-.3363-1.113-.5749-1.562-1.0113c-.45-.4365-.809-.9572-1.057-1.5324s-.381-1.1936-.39-1.82.105-1.2485.336-1.8307c.232-.5823.575-1.1133 1.012-1.5627.436-.4494.957-.8084 1.532-1.0566l18.23-7.86c.575-.2482 1.194-.3808 1.82-.39s1.248.1051 1.831.3363c.582.2312 1.113.5749 1.562 1.0113.45.4365.809.9572 1.057 1.5324z" fill="#f4d6a4"/><path d="m243.73 32.54h-7.46l-3.73 6.46 3.73 6.46h7.46l3.73-6.46z" fill="#b3c9c8"/><path d="m240 42c1.657 0 3-1.3431 3-3s-1.343-3-3-3-3 1.3431-3 3 1.343 3 3 3z" fill="#fff"/><g fill="#f86a6f"><path d="m254.09 36c-.575-.3521-1.241-.5249-1.914-.4964-.674.0285-1.323.257-1.866.6564-.474-1.7542-1.397-3.3543-2.679-4.6417s-2.879-2.2176-4.631-2.6983c.427-.5797.658-1.2802.66-2-.001-.6261-.178-1.2393-.51-1.77 2.69.5653 5.157 1.9019 7.1 3.8465s3.277 4.4129 3.84 7.1035z"/><path d="m254.09 41.79c-.556 2.6641-1.869 5.1113-3.781 7.0481s-4.342 3.2812-6.999 3.8719c.207-.441.313-.9228.31-1.41-.001-.8349-.311-1.64-.87-2.26 1.807-.4519 3.46-1.3778 4.789-2.6822 1.329-1.3045 2.285-2.94 2.771-4.7378.542.4006 1.192.6299 1.866.6584.673.0285 1.34-.145 1.914-.4984z"/><path d="m236.85 51.3c-.003.4872.103.9689.31 1.41-2.67-.5937-5.11-1.9488-7.025-3.9011-1.915-1.9524-3.223-4.4183-3.765-7.0989.549.362 1.193.5533 1.85.55.699-.0002 1.38-.2168 1.95-.62.494 1.7855 1.453 3.4077 2.78 4.7009 1.326 1.2932 2.973 2.2108 4.77 2.6591-.569.6297-.88 1.4511-.87 2.3z"/><path d="m237.51 28.82c-1.754.4745-3.353 1.3984-4.641 2.6804-1.287 1.282-2.217 2.8778-2.699 4.6296-.552-.3892-1.209-.6038-1.884-.6163-.676-.0125-1.34.1778-1.906.5463.558-2.7076 1.898-5.1924 3.853-7.1473 1.955-1.9548 4.439-3.2942 7.147-3.8527-.333.5305-.509 1.1439-.51 1.77-.001.7141.223 1.4103.64 1.99z"/><path d="m248.93 38.9c.001.6645.196 1.3143.56 1.87h-5.49c-.412.8365-1.091 1.512-1.93 1.92v5.8c-.554-.3693-1.204-.5664-1.87-.5664s-1.316.1971-1.87.5664v-5.8c-.839-.4073-1.518-1.083-1.93-1.92h-5.4c.364-.5557.559-1.2055.56-1.87.01-.6754-.186-1.3379-.56-1.9h5.39c.412-.8389 1.091-1.5176 1.93-1.93v-5.44c.554.3681 1.205.5644 1.87.5644s1.316-.1963 1.87-.5644v5.47c.837.4035 1.519 1.0711 1.94 1.9h5.46c-.365.565-.55 1.2276-.53 1.9z"/><path d="m243.62 26.81c0 .8991-.357 1.7614-.993 2.3971-.636.6358-1.498.9929-2.397.9929s-1.761-.3571-2.397-.9929c-.636-.6357-.993-1.498-.993-2.3971s.357-1.7613.993-2.3971c.636-.6357 1.498-.9929 2.397-.9929s1.761.3572 2.397.9929c.636.6358.993 1.498.993 2.3971z"/><path d="m243.62 51.3c.003.4872-.103.969-.31 1.41-.266.5931-.698 1.0966-1.243 1.4499-.546.3533-1.182.5412-1.832.5412s-1.286-.1879-1.832-.5412c-.545-.3533-.977-.8568-1.243-1.4499-.207-.4411-.313-.9228-.31-1.41 0-.8351.31-1.6405.87-2.26.184-.2179.399-.4068.64-.56.554-.3693 1.204-.5664 1.87-.5664.665 0 1.316.1971 1.87.5664.24.1541.455.3428.64.56.563.6185.876 1.4237.88 2.26z"/><path d="m255.71 38.9c0 .627-.174 1.2418-.502 1.7759-.329.5341-.799.9667-1.359 1.2496-.559.2829-1.186.4051-1.811.3529s-1.223-.2766-1.728-.6484c-.323-.2344-.601-.5258-.82-.86-.364-.5557-.559-1.2055-.56-1.87 0-.5314.125-1.0553.365-1.5295.239-.4742.587-.8855 1.015-1.2005.505-.3718 1.103-.5962 1.728-.6484s1.252.07 1.811.3529c.56.2829 1.03.7154 1.359 1.2496.328.5341.502 1.1489.502 1.7759z"/><path d="m231.6 38.9c-.001.6645-.196 1.3143-.56 1.87-.236.3507-.535.6557-.88.9-.57.4032-1.251.6198-1.95.62-.899 0-1.761-.3571-2.397-.9929-.636-.6357-.993-1.498-.993-2.3971s.357-1.7613.993-2.3971c.636-.6357 1.498-.9929 2.397-.9929.699-.0011 1.38.2156 1.95.62.33.2378.614.5324.84.87.389.5576.598 1.2204.6 1.9z"/><path d="m240.23 40.45c.856 0 1.55-.6939 1.55-1.55 0-.856-.694-1.55-1.55-1.55s-1.55.694-1.55 1.55c0 .8561.694 1.55 1.55 1.55z"/></g><path d="m-98.4699 57.67h119c-1.7297-9.1842-6.6138-17.4755-13.80798-23.4408-7.194181-5.9653-16.24641-9.2298-25.59202-9.2292h-103.7101c-5.263 0-10.475 1.0367-15.338 3.0509s-9.281 4.9665-13.003 8.6883c-3.722 3.7217-6.674 8.1401-8.688 13.0028-2.014 4.8628-3.051 10.0746-3.051 15.338v78.09c.01 9.899 3.681 19.444 10.307 26.797 6.627 7.354 15.739 11.996 25.583 13.033v-97c-.004-3.7189.725-7.4022 2.146-10.8392 1.42-3.4369 3.504-6.5602 6.132-9.1913 2.629-2.6311 5.75-4.7183 9.185-6.1424 3.436-1.4241 7.118-2.1571 10.8371-2.1571z" fill="#c6ebf5"/><path d="m-18.87 183.25c10.62986 0 20.82436-4.223 28.34083-11.739 7.51647-7.517 11.73917-17.711 11.73917-28.341v-78.09c-.004-2.4863-.2384-4.9669-.7-7.41h-119c-3.717.0026-7.398.7375-10.831 2.1628s-6.552 3.5129-9.178 6.1437c-2.626 2.6309-4.708 5.7533-6.127 9.189-1.42 3.4356-2.148 7.1172-2.144 10.8345v97c1.392.146 2.79.219 4.19.22z" fill="#e7f6fa"/><path d="m-18.8699 190.25h-103.7101c-12.481-.016-24.447-4.981-33.273-13.807s-13.791-20.791-13.807-33.273v-78.09c.016-12.4815 4.981-24.4473 13.807-33.2731 8.826-8.8257 20.792-13.791 33.273-13.8069h103.7101c12.48149.0159 24.44723 4.9812 33.273 13.8069 8.8258 8.8258 13.7911 20.7916 13.807 33.2731v78.09c-.0159 12.482-4.9812 24.447-13.807 33.273-8.82577 8.826-20.79151 13.791-33.273 13.807zm-103.7101-158.25c-8.77.0106-17.178 3.4992-23.379 9.7006-6.202 6.2014-9.69 14.6093-9.701 23.3794v78.09c.011 8.77 3.499 17.178 9.701 23.379 6.201 6.202 14.609 9.69 23.379 9.701h103.7101c8.7701-.011 17.17794-3.499 23.37936-9.701 6.20144-6.201 9.69004-14.609 9.70064-23.379v-78.09c-.0106-8.7701-3.4992-17.178-9.70064-23.3794-6.20142-6.2014-14.60926-9.69-23.37936-9.7006z" fill="#fff"/></g></svg>