<svg fill="none" height="130" viewBox="0 0 350 130" width="350" xmlns="http://www.w3.org/2000/svg" xmlns:xlink="http://www.w3.org/1999/xlink"><clipPath id="a"><path d="m0 0h350v130h-350z"/></clipPath><g clip-path="url(#a)"><path d="m0 0v33.82c25.3398-13.31 53.7156-19.7731 82.32-18.75 54.68 2.18 104 31.31 152.43 56.81 36.06 19 75.37 36.69 115.24 40v-111.88z" fill="#5ecccc"/><path d="m0 53.27v76.73h127c-21.74-17.47-43.85-34.41-67.81-48.64-18.8235-11.165-38.6376-20.5682-59.19-28.09z" fill="#dbf3f4"/><path d="m82.32 15.07c-28.6044-1.0231-56.9802 5.4401-82.32 18.75v19.45c20.5524 7.5218 40.3665 16.9251 59.19 28.09 24 14.23 46.06 31.17 67.81 48.64h223v-18.11c-39.87-3.32-79.18-21-115.24-40-48.42-25.5-97.76-54.63-152.44-56.82z" fill="#8edadb"/><path d="m325.96 25.38h-137.7v12.37h137.7z" fill="#ffb942"/><path d="m307.83 37.75h-103.59c-3.187 0-5.77 2.5833-5.77 5.77s2.583 5.77 5.77 5.77h103.59c3.187 0 5.77-2.5833 5.77-5.77s-2.583-5.77-5.77-5.77z" fill="#8a3131"/><path d="m307.82 37.75h-43.55c-3.187 0-5.77 2.5833-5.77 5.77s2.583 5.77 5.77 5.77h43.55c3.187 0 5.77-2.5833 5.77-5.77s-2.583-5.77-5.77-5.77z" fill="#ff6b6b"/><path d="m307.83 48.88h-103.59c-3.187 0-5.77 2.5833-5.77 5.77s2.583 5.77 5.77 5.77h103.59c3.187 0 5.77-2.5833 5.77-5.77s-2.583-5.77-5.77-5.77z" fill="#8a3131"/><path d="m307.82 48.88h-43.55c-3.187 0-5.77 2.5833-5.77 5.77s2.583 5.77 5.77 5.77h43.55c3.187 0 5.77-2.5833 5.77-5.77s-2.583-5.77-5.77-5.77z" fill="#ff6b6b"/><path d="m310.91 25.38h-36.07v12.37h36.07z" fill="#fff1d9"/><path d="m307.83 60.02h-103.59c-3.187 0-5.77 2.5833-5.77 5.77s2.583 5.77 5.77 5.77h103.59c3.187 0 5.77-2.5833 5.77-5.77s-2.583-5.77-5.77-5.77z" fill="#8a3131"/><path d="m307.82 60.02h-43.55c-3.187 0-5.77 2.5833-5.77 5.77s2.583 5.77 5.77 5.77h43.55c3.187 0 5.77-2.5833 5.77-5.77s-2.583-5.77-5.77-5.77z" fill="#ff6b6b"/><path d="m307.83 71.15h-103.59c-3.187 0-5.77 2.5833-5.77 5.77s2.583 5.77 5.77 5.77h103.59c3.187 0 5.77-2.5833 5.77-5.77s-2.583-5.77-5.77-5.77z" fill="#8a3131"/><path d="m307.82 71.15h-43.55c-3.187 0-5.77 2.5833-5.77 5.77s2.583 5.77 5.77 5.77h43.55c3.187 0 5.77-2.5833 5.77-5.77s-2.583-5.77-5.77-5.77z" fill="#ff6b6b"/><path d="m307.83 82.28h-103.59c-3.187 0-5.77 2.5834-5.77 5.77 0 3.1867 2.583 5.77 5.77 5.77h103.59c3.187 0 5.77-2.5833 5.77-5.77 0-3.1866-2.583-5.77-5.77-5.77z" fill="#8a3131"/><path d="m307.82 82.28h-43.55c-3.187 0-5.77 2.5834-5.77 5.77 0 3.1867 2.583 5.77 5.77 5.77h43.55c3.187 0 5.77-2.5833 5.77-5.77 0-3.1866-2.583-5.77-5.77-5.77z" fill="#ff6b6b"/><path d="m307.83 93.41h-103.59c-3.187 0-5.77 2.5833-5.77 5.77 0 3.187 2.583 5.77 5.77 5.77h103.59c3.187 0 5.77-2.583 5.77-5.77 0-3.1867-2.583-5.77-5.77-5.77z" fill="#8a3131"/><path d="m307.82 93.41h-43.55c-3.187 0-5.77 2.5833-5.77 5.77 0 3.187 2.583 5.77 5.77 5.77h43.55c3.187 0 5.77-2.583 5.77-5.77 0-3.1867-2.583-5.77-5.77-5.77z" fill="#ff6b6b"/><path d="m325.96 104.54h-137.7v12.37h137.7z" fill="#ffb942"/><path d="m310.91 104.54h-36.07v12.37h36.07z" fill="#fff1d9"/><path d="m179.34 52.77-31.57 54.68c-.54.938-.824 2.001-.824 3.083.001 1.082.286 2.145.827 3.082s1.319 1.715 2.255 2.257c.937.541 2 .827 3.082.828h63.14c1.082-.001 2.145-.287 3.082-.828.936-.542 1.714-1.32 2.255-2.257s.826-2 .827-3.082c0-1.082-.284-2.145-.824-3.083l-31.59-54.68c-.543-.9318-1.321-1.7048-2.257-2.242-.935-.5373-1.994-.82-3.073-.82s-2.138.2827-3.073.82c-.936.5372-1.714 1.3102-2.257 2.242z" fill="#fff"/><path d="m188.08 56.82c-.345-.5937-.839-1.0864-1.434-1.4289s-1.27-.5228-1.956-.5228-1.361.1803-1.956.5228-1.089.8352-1.434 1.4289l-29 50.3c-.341.595-.52 1.27-.519 1.956s.182 1.36.525 1.954c.343.595.836 1.088 1.43 1.432s1.268.526 1.954.528h58.08c.686-.002 1.36-.184 1.954-.528s1.087-.837 1.43-1.432c.343-.594.524-1.268.525-1.954s-.178-1.361-.519-1.956z" fill="#ffb942"/><path d="m195.1 86.37h-9.46l5.03-8.73h-11.38l-5.02 14.36h8.08l-3.59 13.26z" fill="#fff"/></g></svg>